<?xml version="1.0" encoding="utf-8"?>
<!-- Generator: Adobe Illustrator 15.1.0, SVG Export Plug-In . SVG Version: 6.00 Build 0)  -->
<!DOCTYPE svg PUBLIC "-//W3C//DTD SVG 1.1//EN" "http://www.w3.org/Graphics/SVG/1.1/DTD/svg11.dtd" [
	<!ENTITY ns_flows "http://ns.adobe.com/Flows/1.0/">
	<!ENTITY ns_extend "http://ns.adobe.com/Extensibility/1.0/">
	<!ENTITY ns_ai "http://ns.adobe.com/AdobeIllustrator/10.0/">
	<!ENTITY ns_graphs "http://ns.adobe.com/Graphs/1.0/">
	<!ENTITY ns_vars "http://ns.adobe.com/Variables/1.0/">
	<!ENTITY ns_imrep "http://ns.adobe.com/ImageReplacement/1.0/">
	<!ENTITY ns_sfw "http://ns.adobe.com/SaveForWeb/1.0/">
	<!ENTITY ns_custom "http://ns.adobe.com/GenericCustomNamespace/1.0/">
	<!ENTITY ns_adobe_xpath "http://ns.adobe.com/XPath/1.0/">
]>
<svg version="1.1" id="Layer_1" xmlns:x="&ns_extend;" xmlns:i="&ns_ai;" xmlns:graph="&ns_graphs;"
	 xmlns="http://www.w3.org/2000/svg" xmlns:xlink="http://www.w3.org/1999/xlink" xmlns:a="http://ns.adobe.com/AdobeSVGViewerExtensions/3.0/"
	 x="0px" y="0px" width="113.384px" height="113.386px" viewBox="0 0 113.384 113.386"
	 style="enable-background:new 0 0 113.384 113.386;" xml:space="preserve">
<metadata>
	<sfw  xmlns="&ns_sfw;">
		<slices></slices>
		<sliceSourceBounds  height="113.386" width="113.384" y="363.372" x="241.826" bottomLeftOrigin="true"></sliceSourceBounds>
	</sfw>
</metadata>
<g>
	<path d="M105.924,43.927c0,0-1.711-3.215-5.061-3.215l-5.588-0.002l3.951-3.951c2.361-2.359,1.306-5.855,1.306-5.855l-3.749-14.301
		l-14.301-3.748c0,0-3.491-1.062-5.854,1.304l-3.954,3.954v-5.59c0-3.342-3.213-5.064-3.213-5.064L56.699,0L43.928,7.458
		c0,0-3.215,1.723-3.215,5.064v5.59l-3.951-3.954c-2.365-2.365-5.852-1.304-5.852-1.304l-14.305,3.748l-3.752,14.301
		c0,0-1.054,3.496,1.309,5.855l3.951,3.953h-5.59c-3.343,0-5.059,3.215-5.059,3.215L0,56.692l7.465,12.766
		c0,0,1.716,3.215,5.059,3.215h5.59l-3.951,3.951c-2.362,2.367-1.309,5.852-1.309,5.852l3.752,14.301l14.305,3.754
		c0,0,3.486,1.059,5.852-1.305l3.951-3.957v5.594c0,3.348,3.215,5.059,3.215,5.059l12.771,7.465l12.762-7.465
		c0,0,3.213-1.711,3.213-5.059v-5.594l3.954,3.957c2.363,2.363,5.854,1.305,5.854,1.305l14.301-3.754l3.749-14.301
		c0,0,1.056-3.484-1.306-5.852l-3.951-3.951h5.588c3.35,0,5.061-3.215,5.061-3.215l7.46-12.766L105.924,43.927L105.924,43.927z
		 M68.846,27.613l9.148-9.157c0,0,1.558-1.184,3.808-0.562c2.233,0.624,11.01,2.677,11.01,2.677s2.056,8.787,2.681,11.022
		c0.619,2.241-0.564,3.8-0.564,3.8l-9.15,9.15l0.066,0.176h12.951c0,0,1.938,0.266,3.082,2.285c1.143,2.025,5.9,9.688,5.9,9.688
		s-4.758,7.661-5.9,9.686c-1.144,2.029-3.082,2.287-3.082,2.287H85.844l-0.066,0.174l9.15,9.156c0,0,1.184,1.553,0.564,3.799
		c-0.625,2.232-2.681,11.016-2.681,11.016s-8.776,2.053-11.01,2.682c-2.25,0.623-3.808-0.563-3.808-0.563l-9.148-9.15l-0.174,0.072
		v12.938c0,0-0.266,1.939-2.295,3.088c-2.021,1.145-9.678,5.9-9.678,5.9s-7.668-4.756-9.684-5.9
		c-2.035-1.148-2.298-3.088-2.298-3.088V85.851l-0.169-0.072l-9.154,9.15c0,0-1.554,1.186-3.799,0.563
		c-2.24-0.629-11.019-2.682-11.019-2.682s-2.056-8.779-2.681-11.016c-0.619-2.244,0.566-3.799,0.566-3.799l9.151-9.156l-0.07-0.174
		H14.592c0,0-1.935-0.258-3.082-2.287c-1.143-2.025-5.896-9.686-5.896-9.686s4.754-7.662,5.896-9.688
		c1.147-2.02,3.082-2.285,3.082-2.285h12.952l0.07-0.176l-9.151-9.15c0,0-1.186-1.559-0.566-3.8
		c0.625-2.235,2.681-11.022,2.681-11.022s8.776-2.053,11.013-2.677c2.251-0.622,3.805,0.562,3.805,0.562l9.154,9.157l0.169-0.073
		V14.589c0,0,0.263-1.938,2.298-3.078c2.016-1.145,9.684-5.898,9.684-5.898s7.656,4.754,9.678,5.898
		c2.029,1.141,2.295,3.078,2.295,3.078V27.54L68.846,27.613L68.846,27.613z"/>
	<g>
		<path style="fill:#D59F0F;" d="M101.877,47.005c-1.144-2.02-3.082-2.285-3.082-2.285H85.844l-0.066-0.176l9.15-9.15
			c0,0,1.184-1.559,0.564-3.8c-0.625-2.235-2.681-11.022-2.681-11.022s-8.776-2.053-11.01-2.677
			c-2.25-0.622-3.808,0.562-3.808,0.562l-9.148,9.157l-0.174-0.073V14.589c0,0-0.266-1.938-2.295-3.078
			c-2.021-1.145-9.678-5.898-9.678-5.898s-7.668,4.754-9.684,5.898c-2.035,1.141-2.298,3.078-2.298,3.078V27.54l-0.169,0.073
			l-9.154-9.157c0,0-1.554-1.184-3.805-0.562c-2.236,0.624-11.013,2.677-11.013,2.677s-2.056,8.787-2.681,11.022
			c-0.619,2.241,0.566,3.8,0.566,3.8l9.151,9.15l-0.07,0.176H14.592c0,0-1.935,0.266-3.082,2.285
			c-1.143,2.025-5.896,9.688-5.896,9.688s4.754,7.661,5.896,9.686c1.147,2.029,3.082,2.287,3.082,2.287h12.952l0.07,0.174
			l-9.151,9.156c0,0-1.186,1.555-0.566,3.799c0.625,2.236,2.681,11.016,2.681,11.016s8.778,2.053,11.019,2.682
			c2.245,0.623,3.799-0.563,3.799-0.563l9.154-9.15l0.169,0.072v12.938c0,0,0.263,1.939,2.298,3.088
			c2.016,1.145,9.684,5.9,9.684,5.9s7.656-4.756,9.678-5.9c2.029-1.148,2.295-3.088,2.295-3.088V85.851l0.174-0.072l9.148,9.15
			c0,0,1.558,1.186,3.808,0.563c2.233-0.629,11.01-2.682,11.01-2.682s2.056-8.783,2.681-11.016c0.619-2.246-0.564-3.799-0.564-3.799
			l-9.15-9.156l0.066-0.174h12.951c0,0,1.938-0.258,3.082-2.287c1.143-2.025,5.9-9.686,5.9-9.686S103.02,49.03,101.877,47.005z"/>
	</g>
	<path d="M92.831,48.923c0,0-1.085-1.955-3.22-1.955h-9.438l6.673-6.674c1.507-1.502,0.897-3.658,0.897-3.658l-2.148-8.846
		l-8.849-2.144c0,0-2.153-0.612-3.651,0.89l-6.672,6.675v-9.437c0-2.127-1.963-3.213-1.963-3.213l-7.762-4.747l-7.776,4.747
		c0,0-1.954,1.086-1.954,3.213v9.437l-6.674-6.675c-1.501-1.502-3.655-0.89-3.655-0.89l-8.85,2.144l-2.147,8.85
		c0,0-0.607,2.152,0.9,3.654l6.675,6.674h-9.437c-2.133,0-3.223,1.955-3.223,1.955l-4.746,7.77l4.746,7.768
		c0,0,1.09,1.961,3.223,1.961h9.437l-6.675,6.67c-1.508,1.502-0.9,3.656-0.9,3.656l2.147,8.85l8.85,2.145
		c0,0,2.154,0.609,3.655-0.893l6.674-6.674v9.439c0,2.125,1.954,3.211,1.954,3.211l7.776,4.744l7.762-4.744
		c0,0,1.963-1.086,1.963-3.211v-9.439l6.672,6.674c1.498,1.502,3.651,0.893,3.651,0.893l8.849-2.145l2.148-8.85
		c0,0,0.609-2.154-0.897-3.656l-6.673-6.67h9.438c2.135,0,3.22-1.961,3.22-1.961l4.74-7.768L92.831,48.923z M73.89,29.192
		c0,0,0.985-0.761,2.367-0.401c1.39,0.354,6.817,1.521,6.817,1.521s1.165,5.432,1.523,6.819c0.355,1.386-0.403,2.37-0.403,2.37
		l-5.839,5.842V34.128h-9.402L73.89,29.192z M49.407,25.091c0,0,0.163-1.232,1.392-1.96c1.23-0.731,5.9-3.749,5.9-3.749
		s4.658,3.018,5.888,3.749c1.235,0.728,1.392,1.96,1.392,1.96v9.037H49.407V25.091z M29.195,39.501c0,0-0.758-0.984-0.4-2.37
		c0.354-1.388,1.52-6.819,1.52-6.819s5.426-1.167,6.822-1.521c1.382-0.359,2.365,0.401,2.365,0.401l4.935,4.936h-9.933V44.81
		L29.195,39.501z M25.092,63.982c0,0-1.229-0.16-1.964-1.391c-0.723-1.229-3.74-5.899-3.74-5.899s3.018-4.657,3.74-5.895
		c0.735-1.234,1.964-1.399,1.964-1.399h9.412v14.583H25.092z M39.502,84.189c0,0-0.983,0.762-2.365,0.402
		c-1.396-0.355-6.822-1.516-6.822-1.516s-1.166-5.436-1.52-6.813c-0.357-1.395,0.4-2.373,0.4-2.373l5.309-5.314v9.938h10.689
		L39.502,84.189z M63.979,88.3c0,0-0.156,1.225-1.392,1.959C61.357,90.98,56.699,94,56.699,94s-4.67-3.02-5.9-3.74
		c-1.229-0.734-1.392-1.959-1.392-1.959v-9.787h14.571V88.3z M39.994,73.392V39.995H73.39v33.397H39.994z M84.201,73.89
		c0,0,0.752,0.979,0.396,2.373c-0.358,1.377-1.523,6.813-1.523,6.813s-5.428,1.16-6.809,1.52c-1.391,0.355-2.376-0.406-2.376-0.406
		l-5.69-5.676h10.156V68.048L84.201,73.89z M90.258,62.591c-0.723,1.23-1.955,1.391-1.955,1.391h-9.947V49.398h9.947
		c0,0,1.232,0.165,1.955,1.399c0.73,1.237,3.746,5.895,3.746,5.895S90.988,61.363,90.258,62.591z"/>
	<g>
		<g>
			<path style="fill:none;" d="M56.693,56.163c-0.303,0.002-0.549,0.25-0.549,0.555c0,0.305,0.246,0.551,0.549,0.553
				c0.307-0.002,0.55-0.248,0.55-0.553C57.243,56.413,57,56.165,56.693,56.163z"/>
			<path d="M71.65,52.161c-4.484-3.271-6.792-2.371-7.16-2.337c-0.367,0.033-7.702,2.921-7.797,2.958
				c-0.094-0.037-7.429-2.925-7.795-2.958c-0.371-0.034-2.678-0.935-7.163,2.337l13.373,5.135L43.81,62.98h3.251l9.633-4.914
				l9.633,4.914h3.252l-11.297-5.684L71.65,52.161z M56.693,57.271c-0.303-0.002-0.549-0.248-0.549-0.553
				c0-0.305,0.246-0.553,0.549-0.555c0.307,0.002,0.55,0.25,0.55,0.555C57.243,57.023,57,57.269,56.693,57.271z"/>
		</g>
		<path style="fill:#FFFFFF;" d="M64.355,51.263l-7.662,3.049l-7.667-3.049c0,0-2.371-0.736-4.441,0.563l10.667,4.2
			c0,0,0.395-0.77,1.443-0.779c1.043,0.01,1.441,0.779,1.441,0.779l10.666-4.2C66.732,50.526,64.355,51.263,64.355,51.263z"/>
	</g>
</g>
</svg>
